<svg width="48" height="48" viewBox="0 0 48 48" fill="none" xmlns="http://www.w3.org/2000/svg">
<g id="mem_3d_block2" clip-path="url(#clip0_229_18974)">
<path id="Vector" d="M24.0931 23.5195L24.0255 46.56L4.90802 35.52L4.96994 12.48L24.0931 23.5195Z" stroke="#815222" stroke-width="3" stroke-linecap="round" stroke-linejoin="round"/>
<path id="Vector_2" d="M43.092 12.48L43.0301 35.52L24.0255 46.56L24.0931 23.5195L43.092 12.48Z" fill="#EFBF04" stroke="#815222" stroke-width="3" stroke-linecap="round" stroke-linejoin="round"/>
<path id="Vector_3" d="M24.0931 24.96C23.8404 24.9603 23.5921 24.8941 23.3731 24.768L4.24992 13.728C4.03122 13.6018 3.84956 13.4202 3.72316 13.2016C3.59677 12.983 3.53008 12.735 3.52979 12.4825C3.52949 12.23 3.59561 11.9818 3.7215 11.7629C3.84739 11.544 4.02863 11.3621 4.24704 11.2354L23.2512 0.194871C23.4705 0.0678603 23.7194 0.000976563 23.9729 0.000976562C24.2263 0.000976562 24.4753 0.0678603 24.6946 0.194871L43.812 11.2349C44.0306 11.3611 44.2122 11.5426 44.3386 11.7611C44.4649 11.9796 44.5316 12.2275 44.532 12.48C44.5323 12.7324 44.4663 12.9805 44.3405 13.1994C44.2147 13.4183 44.0336 13.6002 43.8154 13.727L24.8165 24.767C24.5966 24.894 24.347 24.9606 24.0931 24.96Z" fill="#815222"/>
</g>
<defs>
<clipPath id="clip0_229_18974">
<rect width="48" height="48" fill="white"/>
</clipPath>
</defs>
</svg>
