<svg width="36" height="37" viewBox="0 0 36 37" fill="none" xmlns="http://www.w3.org/2000/svg">
<g id="Logo-1" clip-path="url(#clip0_531_3337)">
<path id="Vector" fill-rule="evenodd" clip-rule="evenodd" d="M12.3431 0.953125C10.3124 0.953125 8.36487 1.74015 6.92893 3.14107L0 9.90096V12.9952C0 15.1813 0.962496 17.148 2.49661 18.5141C0.962496 19.8802 0 21.8469 0 24.033V27.1272L6.92893 33.8871C8.36487 35.2881 10.3124 36.0751 12.3431 36.0751C14.5839 36.0751 16.5998 35.1361 18 33.6394C19.4002 35.1361 21.4161 36.0751 23.6569 36.0751C25.6876 36.0751 27.6351 35.2881 29.0711 33.8871L36 27.1272V24.033C36 21.8469 35.0375 19.8802 33.5034 18.5141C35.0375 17.148 36 15.1813 36 12.9952V9.90096L29.0711 3.14107C27.6351 1.74015 25.6876 0.953125 23.6569 0.953125C21.4161 0.953125 19.4002 1.89214 18 3.38884C16.5998 1.89214 14.5839 0.953125 12.3431 0.953125ZM23.1829 18.5141C23.0966 18.4373 23.0119 18.3583 22.9289 18.2774L18 13.4686L13.0711 18.2774C12.9881 18.3583 12.9034 18.4373 12.8171 18.5141C12.9034 18.5909 12.9881 18.6699 13.0711 18.7508L18 23.5595L22.9289 18.7508C23.0119 18.6699 23.0966 18.5909 23.1829 18.5141ZM20 27.1272V28.605C20 30.5753 21.6373 32.1727 23.6569 32.1727C24.6267 32.1727 25.5569 31.7968 26.2426 31.1277L32 25.5107V24.033C32 22.0626 30.3628 20.4653 28.3432 20.4653C27.3733 20.4653 26.4432 20.8412 25.7574 21.5103L20 27.1272ZM16 27.1272L10.2426 21.5103C9.55683 20.8412 8.62672 20.4653 7.65686 20.4653C5.63723 20.4653 4 22.0626 4 24.033V25.5107L9.75735 31.1277C10.4431 31.7968 11.3733 32.1727 12.3431 32.1727C14.3627 32.1727 16 30.5753 16 28.605V27.1272ZM16 8.42323V9.90096L10.2426 15.5179C9.55683 16.187 8.62672 16.5629 7.65686 16.5629C5.63723 16.5629 4 14.9655 4 12.9952V11.5174L9.75735 5.90051C10.4431 5.23144 11.3733 4.85557 12.3431 4.85557C14.3627 4.85557 16 6.45286 16 8.42323ZM25.7574 15.5179L20 9.90096V8.42323C20 6.45286 21.6373 4.85557 23.6569 4.85557C24.6267 4.85557 25.5569 5.23144 26.2426 5.90051L32 11.5174V12.9952C32 14.9655 30.3628 16.5629 28.3432 16.5629C27.3733 16.5629 26.4432 16.187 25.7574 15.5179Z" fill="#FF630B"/>
</g>
<defs>
<clipPath id="clip0_531_3337">
<rect width="36" height="36" fill="white" transform="translate(0 0.5)"/>
</clipPath>
</defs>
</svg>
