<svg width="48" height="48" viewBox="0 0 48 48" fill="none" xmlns="http://www.w3.org/2000/svg">
<g id="mem_dots_f_circle" clip-path="url(#clip0_229_18988)">
<path id="Vector" d="M19.7822 39.5645C30.7077 39.5645 39.5645 30.7077 39.5645 19.7822C39.5645 8.85681 30.7077 0 19.7822 0C8.85681 0 0 8.85681 0 19.7822C0 30.7077 8.85681 39.5645 19.7822 39.5645Z" fill="#815222"/>
<path id="Vector_2" d="M16.7289 22.3853C18.0027 22.3853 19.0353 21.3527 19.0353 20.0789C19.0353 18.8051 18.0027 17.7725 16.7289 17.7725C15.4552 17.7725 14.4225 18.8051 14.4225 20.0789C14.4225 21.3527 15.4552 22.3853 16.7289 22.3853Z" fill="#EFBF04"/>
<path id="Vector_3" d="M14.4225 36.1094C15.6963 36.1094 16.729 35.0768 16.729 33.803C16.729 32.5292 15.6963 31.4966 14.4225 31.4966C13.1488 31.4966 12.1161 32.5292 12.1161 33.803C12.1161 35.0768 13.1488 36.1094 14.4225 36.1094Z" fill="#EFBF04"/>
<path id="Vector_4" d="M28.4559 43.2081C29.8651 43.2081 31.0075 42.0657 31.0075 40.6564C31.0075 39.2472 29.8651 38.1047 28.4559 38.1047C27.0466 38.1047 25.9042 39.2472 25.9042 40.6564C25.9042 42.0657 27.0466 43.2081 28.4559 43.2081Z" fill="#EFBF04"/>
<path id="Vector_5" d="M27.661 15.6504C28.9347 15.6504 29.9674 14.6178 29.9674 13.344C29.9674 12.0702 28.9347 11.0376 27.661 11.0376C26.3872 11.0376 25.3546 12.0702 25.3546 13.344C25.3546 14.6178 26.3872 15.6504 27.661 15.6504Z" fill="#EFBF04"/>
<path id="Vector_6" d="M21.4306 17.7719C22.1429 17.7719 22.7203 17.1945 22.7203 16.4821C22.7203 15.7698 22.1429 15.1924 21.4306 15.1924C20.7183 15.1924 20.1408 15.7698 20.1408 16.4821C20.1408 17.1945 20.7183 17.7719 21.4306 17.7719Z" fill="#EFBF04"/>
<path id="Vector_7" d="M21.4306 27.8178C22.1429 27.8178 22.7203 27.2404 22.7203 26.528C22.7203 25.8157 22.1429 25.2383 21.4306 25.2383C20.7183 25.2383 20.1408 25.8157 20.1408 26.528C20.1408 27.2404 20.7183 27.8178 21.4306 27.8178Z" fill="#EFBF04"/>
<path id="Vector_8" d="M14.7427 27.4916C15.455 27.4916 16.0325 26.9142 16.0325 26.2019C16.0325 25.4896 15.455 24.9121 14.7427 24.9121C14.0304 24.9121 13.4529 25.4896 13.4529 26.2019C13.4529 26.9142 14.0304 27.4916 14.7427 27.4916Z" fill="#EFBF04"/>
<path id="Vector_9" d="M31.2461 34.8198C31.9584 34.8198 32.5358 34.2423 32.5358 33.53C32.5358 32.8177 31.9584 32.2402 31.2461 32.2402C30.5337 32.2402 29.9563 32.8177 29.9563 33.53C29.9563 34.2423 30.5337 34.8198 31.2461 34.8198Z" fill="#EFBF04"/>
<path id="Vector_10" d="M45.0936 34.0954C45.8059 34.0954 46.3834 33.5179 46.3834 32.8056C46.3834 32.0933 45.8059 31.5159 45.0936 31.5159C44.3813 31.5159 43.8038 32.0933 43.8038 32.8056C43.8038 33.5179 44.3813 34.0954 45.0936 34.0954Z" fill="#EFBF04"/>
<path id="Vector_11" d="M37.7342 36.1679C39.0404 36.1679 40.0992 35.1091 40.0992 33.8029C40.0992 32.4968 39.0404 31.438 37.7342 31.438C36.4281 31.438 35.3693 32.4968 35.3693 33.8029C35.3693 35.1091 36.4281 36.1679 37.7342 36.1679Z" fill="#EFBF04"/>
<path id="Vector_12" d="M41.7883 21.4272C43.0944 21.4272 44.1533 20.3684 44.1533 19.0622C44.1533 17.7561 43.0944 16.6973 41.7883 16.6973C40.4822 16.6973 39.4233 17.7561 39.4233 19.0622C39.4233 20.3684 40.4822 21.4272 41.7883 21.4272Z" fill="#EFBF04"/>
<path id="Vector_13" d="M34.4285 16.5763C35.3211 16.5763 36.0446 15.8527 36.0446 14.9602C36.0446 14.0676 35.3211 13.344 34.4285 13.344C33.5359 13.344 32.8123 14.0676 32.8123 14.9602C32.8123 15.8527 33.5359 16.5763 34.4285 16.5763Z" fill="#EFBF04"/>
<path id="Vector_14" d="M46.3839 28.1444C47.2764 28.1444 48 27.4208 48 26.5283C48 25.6357 47.2764 24.9121 46.3839 24.9121C45.4913 24.9121 44.7677 25.6357 44.7677 26.5283C44.7677 27.4208 45.4913 28.1444 46.3839 28.1444Z" fill="#EFBF04"/>
<path id="Vector_15" d="M37.308 29.4346C38.4763 29.4346 39.4233 28.4875 39.4233 27.3192C39.4233 26.1509 38.4763 25.2039 37.308 25.2039C36.1397 25.2039 35.1926 26.1509 35.1926 27.3192C35.1926 28.4875 36.1397 29.4346 37.308 29.4346Z" fill="#EFBF04"/>
<path id="Vector_16" d="M27.661 28.3887C28.8292 28.3887 29.7763 27.4416 29.7763 26.2733C29.7763 25.105 28.8292 24.158 27.661 24.158C26.4927 24.158 25.5456 25.105 25.5456 26.2733C25.5456 27.4416 26.4927 28.3887 27.661 28.3887Z" fill="#EFBF04"/>
<path id="Vector_17" d="M28.4559 48.0001C29.1851 48.0001 29.7763 47.4089 29.7763 46.6796C29.7763 45.9503 29.1851 45.3591 28.4559 45.3591C27.7266 45.3591 27.1354 45.9503 27.1354 46.6796C27.1354 47.4089 27.7266 48.0001 28.4559 48.0001Z" fill="#EFBF04"/>
<path id="Vector_18" d="M19.0354 44.63C19.7647 44.63 20.3559 44.0388 20.3559 43.3095C20.3559 42.5802 19.7647 41.989 19.0354 41.989C18.3061 41.989 17.7149 42.5802 17.7149 43.3095C17.7149 44.0388 18.3061 44.63 19.0354 44.63Z" fill="#EFBF04"/>
<path id="Vector_19" d="M37.308 46.5523C38.0373 46.5523 38.6285 45.9611 38.6285 45.2319C38.6285 44.5026 38.0373 43.9114 37.308 43.9114C36.5787 43.9114 35.9875 44.5026 35.9875 45.2319C35.9875 45.9611 36.5787 46.5523 37.308 46.5523Z" fill="#EFBF04"/>
<path id="Vector_20" d="M44.3343 41.2713C45.2671 41.2713 46.0234 40.5151 46.0234 39.5822C46.0234 38.6493 45.2671 37.8931 44.3343 37.8931C43.4014 37.8931 42.6451 38.6493 42.6451 39.5822C42.6451 40.5151 43.4014 41.2713 44.3343 41.2713Z" fill="#EFBF04"/>
<path id="Vector_21" d="M34.4285 21.9518C35.1408 21.9518 35.7183 21.3744 35.7183 20.6621C35.7183 19.9498 35.1408 19.3723 34.4285 19.3723C33.7162 19.3723 33.1387 19.9498 33.1387 20.6621C33.1387 21.3744 33.7162 21.9518 34.4285 21.9518Z" fill="#EFBF04"/>
<path id="Vector_22" d="M24.0101 33.8031C24.7224 33.8031 25.2999 33.2257 25.2999 32.5134C25.2999 31.8011 24.7224 31.2236 24.0101 31.2236C23.2978 31.2236 22.7203 31.8011 22.7203 32.5134C22.7203 33.2257 23.2978 33.8031 24.0101 33.8031Z" fill="#EFBF04"/>
<path id="Vector_23" d="M20.1403 40.3835C21.1578 40.3835 21.9826 39.5587 21.9826 38.5412C21.9826 37.5238 21.1578 36.699 20.1403 36.699C19.1229 36.699 18.2981 37.5238 18.2981 38.5412C18.2981 39.5587 19.1229 40.3835 20.1403 40.3835Z" fill="#EFBF04"/>
<path id="Vector_24" d="M36.9105 41.9769C37.8593 41.9769 38.6285 41.2077 38.6285 40.2589C38.6285 39.3102 37.8593 38.541 36.9105 38.541C35.9618 38.541 35.1926 39.3102 35.1926 40.2589C35.1926 41.2077 35.9618 41.9769 36.9105 41.9769Z" fill="#EFBF04"/>
<path id="Vector_25" d="M26.8354 20.9159C27.5477 20.9159 28.1251 20.3385 28.1251 19.6262C28.1251 18.9139 27.5477 18.3364 26.8354 18.3364C26.123 18.3364 25.5456 18.9139 25.5456 19.6262C25.5456 20.3385 26.123 20.9159 26.8354 20.9159Z" fill="#EFBF04"/>
</g>
<defs>
<clipPath id="clip0_229_18988">
<rect width="48" height="48" fill="white"/>
</clipPath>
</defs>
</svg>
