<svg width="16" height="17" viewBox="0 0 16 17" fill="none" xmlns="http://www.w3.org/2000/svg">
<path d="M14.667 5.83494C14.6669 5.71596 14.6349 5.59918 14.5745 5.49672C14.514 5.39426 14.4272 5.30986 14.323 5.25227L8.30837 1.91894C8.20954 1.86449 8.09854 1.83594 7.9857 1.83594C7.87287 1.83594 7.76187 1.86449 7.66304 1.91894L1.6777 5.22561C1.57373 5.28318 1.48703 5.36751 1.4266 5.46985C1.36616 5.57219 1.33419 5.68883 1.33399 5.80769C1.33378 5.92654 1.36536 6.04329 1.42544 6.14584C1.48552 6.24839 1.57192 6.33301 1.6757 6.39094L7.69037 9.75094C7.78939 9.80658 7.90104 9.83585 8.01462 9.83597C8.12819 9.83609 8.2399 9.80704 8.33904 9.75161L14.3244 6.41827C14.4283 6.36046 14.5149 6.27588 14.5752 6.1733C14.6354 6.07073 14.6672 5.9539 14.667 5.83494ZM8.0157 8.40494L3.3737 5.81227L7.98504 3.26427L12.6277 5.83694L8.0157 8.40494Z" fill="#CE8946"/>
<path d="M13.677 7.9196L8.00035 11.0729L2.32368 7.9196L1.67635 9.08493L7.67635 12.4183C7.77537 12.4732 7.88676 12.5021 8.00002 12.5021C8.11328 12.5021 8.22467 12.4732 8.32368 12.4183L14.3237 9.08493L13.677 7.9196Z" fill="#CE8946"/>
<path d="M13.677 10.5863L8.00035 13.7396L2.32368 10.5863L1.67635 11.7516L7.67635 15.0849C7.77537 15.1399 7.88676 15.1688 8.00002 15.1688C8.11328 15.1688 8.22467 15.1399 8.32368 15.0849L14.3237 11.7516L13.677 10.5863Z" fill="#CE8946"/>
</svg>
