<svg width="33" height="33" viewBox="0 0 33 33" fill="none" xmlns="http://www.w3.org/2000/svg">
<path d="M22.1297 11.1501C24.2561 11.1501 26.2953 11.9947 27.7988 13.4982C29.3023 15.0018 30.147 17.041 30.147 19.1673V28.5207H24.8022V19.1673C24.8022 18.4585 24.5206 17.7788 24.0194 17.2776C23.5183 16.7764 22.8385 16.4949 22.1297 16.4949C21.421 16.4949 20.7412 16.7764 20.2401 17.2776C19.7389 17.7788 19.4573 18.4585 19.4573 19.1673V28.5207H14.1125V19.1673C14.1125 17.041 14.9572 15.0018 16.4607 13.4982C17.9642 11.9947 20.0034 11.1501 22.1297 11.1501Z" stroke="white" stroke-width="2.67241" stroke-linecap="round" stroke-linejoin="round"/>
<path d="M8.76768 12.4863H3.42285V28.5207H8.76768V12.4863Z" stroke="white" stroke-width="2.67241" stroke-linecap="round" stroke-linejoin="round"/>
<path d="M6.09527 8.47764C7.5712 8.47764 8.76768 7.28116 8.76768 5.80523C8.76768 4.32929 7.5712 3.13281 6.09527 3.13281C4.61933 3.13281 3.42285 4.32929 3.42285 5.80523C3.42285 7.28116 4.61933 8.47764 6.09527 8.47764Z" stroke="white" stroke-width="2.67241" stroke-linecap="round" stroke-linejoin="round"/>
</svg>
