<svg width="28" height="28" viewBox="0 0 28 28" fill="none" xmlns="http://www.w3.org/2000/svg">
<path d="M13.9987 25.6693C13.7265 25.6693 13.4931 25.5915 13.2987 25.4359C13.1043 25.2804 12.9584 25.0762 12.8612 24.8234C12.4918 23.7345 12.0251 22.7137 11.4612 21.7609C10.9168 20.8082 10.1487 19.6901 9.15703 18.4068C8.16536 17.1234 7.35842 15.8984 6.7362 14.7318C6.13342 13.5651 5.83203 12.1554 5.83203 10.5026C5.83203 8.2276 6.61953 6.3026 8.19453 4.7276C9.78898 3.13316 11.7237 2.33594 13.9987 2.33594C16.2737 2.33594 18.1987 3.13316 19.7737 4.7276C21.3681 6.3026 22.1654 8.2276 22.1654 10.5026C22.1654 12.272 21.8251 13.7498 21.1445 14.9359C20.4834 16.1026 19.7154 17.2595 18.8404 18.4068C17.7904 19.8068 16.9931 20.9734 16.4487 21.9068C15.9237 22.8207 15.4862 23.7929 15.1362 24.8234C15.039 25.0957 14.8834 25.3096 14.6695 25.4651C14.4751 25.6012 14.2515 25.6693 13.9987 25.6693ZM13.9987 13.4193C14.8154 13.4193 15.5056 13.1373 16.0695 12.5734C16.6334 12.0096 16.9154 11.3193 16.9154 10.5026C16.9154 9.68594 16.6334 8.99566 16.0695 8.43177C15.5056 7.86788 14.8154 7.58594 13.9987 7.58594C13.182 7.58594 12.4918 7.86788 11.9279 8.43177C11.364 8.99566 11.082 9.68594 11.082 10.5026C11.082 11.3193 11.364 12.0096 11.9279 12.5734C12.4918 13.1373 13.182 13.4193 13.9987 13.4193Z" fill="white"/>
</svg>
