<svg width="18" height="18" viewBox="0 0 18 18" fill="none" xmlns="http://www.w3.org/2000/svg">
<g clip-path="url(#clip0_388_25199)">
<path fill-rule="evenodd" clip-rule="evenodd" d="M6.3287 0.714844C5.36973 0.714844 4.45008 1.0865 3.77199 1.74804L0.5 4.94021V6.40138C0.5 7.43369 0.954512 8.36243 1.67895 9.00752C0.954512 9.65261 0.5 10.5813 0.5 11.6137V13.0748L3.77199 16.267C4.45008 16.9286 5.36973 17.3002 6.3287 17.3002C7.38683 17.3002 8.33879 16.8568 9 16.15C9.66121 16.8568 10.6132 17.3002 11.6713 17.3002C12.6303 17.3002 13.5499 16.9286 14.228 16.267L17.5 13.0748V11.6137C17.5 10.5813 17.0455 9.65261 16.3211 9.00752C17.0455 8.36243 17.5 7.43369 17.5 6.40138V4.94021L14.228 1.74804C13.5499 1.0865 12.6303 0.714844 11.6713 0.714844C10.6132 0.714844 9.66121 1.15827 9 1.86504C8.33879 1.15827 7.38683 0.714844 6.3287 0.714844ZM11.4475 9.00752C11.4067 8.97124 11.3667 8.93396 11.3276 8.89573L9 6.62495L6.67245 8.89573C6.63326 8.93396 6.59327 8.97124 6.55251 9.00752C6.59327 9.0438 6.63326 9.08108 6.67245 9.11931L9 11.3901L11.3276 9.11931C11.3667 9.08108 11.4067 9.0438 11.4475 9.00752ZM9.94444 13.0748V13.7727C9.94444 14.7031 10.7176 15.4574 11.6713 15.4574C12.1293 15.4574 12.5685 15.2799 12.8924 14.9639L15.6111 12.3115V11.6137C15.6111 10.6832 14.838 9.92892 13.8843 9.92892C13.4263 9.92892 12.9871 10.1064 12.6632 10.4224L9.94444 13.0748ZM8.05556 13.0748L5.3368 10.4224C5.01295 10.1064 4.57373 9.92892 4.11574 9.92892C3.16203 9.92892 2.38889 10.6832 2.38889 11.6137V12.3115L5.10764 14.9639C5.43149 15.2799 5.87073 15.4574 6.3287 15.4574C7.2824 15.4574 8.05556 14.7031 8.05556 13.7727V13.0748ZM8.05556 4.24239V4.94021L5.3368 7.59266C5.01295 7.90862 4.57373 8.08612 4.11574 8.08612C3.16203 8.08612 2.38889 7.33182 2.38889 6.40138V5.70355L5.10764 3.05111C5.43149 2.73516 5.87073 2.55766 6.3287 2.55766C7.2824 2.55766 8.05556 3.31194 8.05556 4.24239ZM12.6632 7.59266L9.94444 4.94021V4.24239C9.94444 3.31194 10.7176 2.55766 11.6713 2.55766C12.1293 2.55766 12.5685 2.73516 12.8924 3.05111L15.6111 5.70355V6.40138C15.6111 7.33182 14.838 8.08612 13.8843 8.08612C13.4263 8.08612 12.9871 7.90862 12.6632 7.59266Z" fill="#FF630B"/>
</g>
<defs>
<clipPath id="clip0_388_25199">
<rect width="17" height="17" fill="white" transform="translate(0.5 0.5)"/>
</clipPath>
</defs>
</svg>
