<svg width="22" height="23" viewBox="0 0 22 23" fill="none" xmlns="http://www.w3.org/2000/svg">
<g clip-path="url(#clip0_967_24267)">
<path d="M3.00936 17.129C3.81612 17.7509 5.12413 17.7509 5.93091 17.129C6.73762 16.507 6.73762 15.4986 5.93091 14.8766C5.12413 14.2547 3.81612 14.2547 3.00936 14.8766C2.20261 15.4986 2.20261 16.507 3.00936 17.129Z" fill="#25CAAC"/>
<path d="M11.3841 8.68365C12.5943 9.61657 14.5563 9.61657 15.7664 8.68365C16.9765 7.75068 16.9765 6.23811 15.7664 5.30517C14.5563 4.37223 12.5943 4.37223 11.3841 5.30517C10.174 6.23811 10.174 7.75068 11.3841 8.68365Z" fill="#25CAAC"/>
<path d="M6.93797 12.9063C7.94641 13.6837 9.58143 13.6837 10.5899 12.9063C11.5983 12.1288 11.5983 10.8683 10.5899 10.0909C9.58143 9.31346 7.94641 9.31346 6.93797 10.0909C5.92953 10.8683 5.92953 12.1288 6.93797 12.9063Z" fill="#25CAAC"/>
<path d="M0.4538 12.3438C1.05887 12.8102 2.03987 12.8102 2.64494 12.3438C3.25 11.8773 3.25 11.121 2.64494 10.6545C2.03987 10.1881 1.05887 10.1881 0.4538 10.6545C-0.151267 11.121 -0.151266 11.8773 0.4538 12.3438Z" fill="#25CAAC"/>
<path d="M6.93797 3.89847C7.94641 4.67591 9.58143 4.67591 10.5899 3.89847C11.5983 3.12102 11.5983 1.86053 10.5899 1.08309C9.58143 0.305638 7.94641 0.305638 6.93797 1.08309C5.92953 1.86053 5.92953 3.12102 6.93797 3.89847Z" fill="#25CAAC"/>
<path d="M3.00936 8.12112C3.81612 8.74308 5.12413 8.74308 5.9309 8.12112C6.73762 7.49916 6.73762 6.49075 5.9309 5.86881C5.12413 5.24685 3.81612 5.24685 3.00936 5.86881C2.20261 6.49075 2.20261 7.49916 3.00936 8.12112Z" fill="#25CAAC"/>
<path d="M6.93797 21.918C7.94641 22.6954 9.58143 22.6954 10.5899 21.918C11.5983 21.1405 11.5983 19.8801 10.5899 19.1026C9.58143 18.3252 7.94641 18.3252 6.93797 19.1026C5.92953 19.8801 5.92953 21.1405 6.93797 21.918Z" fill="#25CAAC"/>
<path d="M16.7103 13.1876C17.9205 14.1205 19.8825 14.1205 21.0926 13.1876C22.3028 12.2546 22.3028 10.742 21.0926 9.80911C19.8825 8.87613 17.9205 8.87613 16.7103 9.80911C15.5002 10.742 15.5002 12.2546 16.7103 13.1876Z" fill="#25CAAC"/>
<path d="M11.3841 17.6953C12.5943 18.6283 14.5563 18.6283 15.7664 17.6953C16.9765 16.7624 16.9765 15.2498 15.7664 14.3169C14.5563 13.384 12.5943 13.384 11.3841 14.3169C10.174 15.2498 10.174 16.7624 11.3841 17.6953Z" fill="#25CAAC"/>
</g>
<defs>
<clipPath id="clip0_967_24267">
<rect width="22" height="22" fill="white" transform="translate(0 0.5)"/>
</clipPath>
</defs>
</svg>
