<svg width="22" height="23" viewBox="0 0 22 23" fill="none" xmlns="http://www.w3.org/2000/svg">
<g clip-path="url(#clip0_967_24247)">
<path fill-rule="evenodd" clip-rule="evenodd" d="M5.5 0.5C8.53754 0.5 11 2.96243 11 6V0.5H16.5C19.5375 0.5 22 2.96243 22 6C22 9.03754 19.5375 11.5 16.5 11.5C19.5375 11.5 22 13.9625 22 17C22 18.5083 21.3929 19.8747 20.4097 20.8684L20.3891 20.8891L20.3708 20.9073C19.377 21.8919 18.0095 22.5 16.5 22.5C15.0008 22.5 13.6416 21.9001 12.6495 20.9273C12.6366 20.9146 12.6237 20.9019 12.6109 20.8891C12.5989 20.8771 12.5869 20.865 12.5749 20.8528C11.6008 19.8605 11 18.5004 11 17C11 20.0375 8.53754 22.5 5.5 22.5C2.46243 22.5 0 20.0375 0 17V11.5H5.5C2.46243 11.5 0 9.03754 0 6C0 2.96243 2.46243 0.5 5.5 0.5ZM9.9 6C9.9 8.43007 7.93007 10.4 5.5 10.4V1.6C7.93007 1.6 9.9 3.56995 9.9 6ZM20.9 17C20.9 14.5699 18.9301 12.6 16.5 12.6C14.0699 12.6 12.1 14.5699 12.1 17H20.9ZM1.1 12.6V17C1.1 19.4301 3.06995 21.4 5.5 21.4C7.93007 21.4 9.9 19.4301 9.9 17V12.6H1.1ZM12.1 10.4V1.6H16.5C18.9301 1.6 20.9 3.56995 20.9 6C20.9 8.43007 18.9301 10.4 16.5 10.4H12.1Z" fill="#5417D7"/>
</g>
<defs>
<clipPath id="clip0_967_24247">
<rect width="22" height="22" fill="white" transform="translate(0 0.5)"/>
</clipPath>
</defs>
</svg>
