<svg width="36" height="36" viewBox="0 0 36 36" fill="none" xmlns="http://www.w3.org/2000/svg">
<path d="M1.45795 21.9674C1.45795 20.2724 1.78498 18.5939 2.42042 17.028C3.05586 15.4619 3.9872 14.039 5.16133 12.8404C6.33545 11.6419 7.72929 10.6911 9.26333 10.0424C10.7974 9.39382 12.4416 9.05992 14.1021 9.05992V21.9674H1.45795Z" fill="#442781"/>
<path d="M1.45795 21.9674C1.45795 23.6625 1.78498 25.3409 2.42042 26.907C3.05586 28.473 3.9872 29.8959 5.16133 31.0945C6.33545 32.2931 7.72929 33.2438 9.26333 33.8925C10.7974 34.5412 12.4416 34.875 14.1021 34.875V21.9674H1.45795Z" fill="#61459C"/>
<path d="M26.746 21.9674C26.746 23.6625 26.4192 25.3409 25.7839 26.907C25.1484 28.473 24.2171 29.8959 23.0428 31.0945C21.8687 32.2931 20.4748 33.2438 18.9407 33.8925C17.4067 34.5412 15.7625 34.875 14.1021 34.875V21.9674H26.746Z" fill="#A992DB"/>
<path d="M34.5421 10.8165C34.5421 16.169 30.2914 20.508 25.0483 20.508H15.5547V10.8165C15.5547 5.46405 19.8052 1.125 25.0483 1.125C30.2914 1.125 34.5421 5.46405 34.5421 10.8165Z" fill="#FF7917"/>
</svg>
