<svg width="22" height="23" viewBox="0 0 22 23" fill="none" xmlns="http://www.w3.org/2000/svg">
<g clip-path="url(#clip0_967_24295)">
<path fill-rule="evenodd" clip-rule="evenodd" d="M14.0556 6.92692C13.1512 6.32258 12.0878 6 11 6V0.5C13.1756 0.5 15.3023 1.14514 17.1113 2.35384C18.9202 3.56253 20.3301 5.2805 21.1627 7.29047C21.9952 9.30044 22.2131 11.5122 21.7886 13.646C21.3642 15.7798 20.3166 17.7398 18.7782 19.2782C17.2398 20.8166 15.2798 21.8642 13.146 22.2886C11.0122 22.7131 8.80044 22.4952 6.79047 21.6627C4.7805 20.8301 3.06253 19.4202 1.85384 17.6113C0.645139 15.8023 0 13.6756 0 11.5H5.5C5.5 12.5878 5.82258 13.6512 6.42692 14.5556C7.03126 15.4601 7.89025 16.165 8.89526 16.5813C9.90022 16.9976 11.0061 17.1065 12.073 16.8943C13.1399 16.6821 14.1199 16.1583 14.8891 15.3891C15.6583 14.6199 16.1821 13.6399 16.3943 12.573C16.6065 11.5061 16.4976 10.4002 16.0813 9.39526C15.665 8.39025 14.9601 7.53126 14.0556 6.92692Z" fill="#007DFC"/>
<path fill-rule="evenodd" clip-rule="evenodd" d="M5.5 0.500002C5.5 1.22227 5.35774 1.93747 5.08134 2.60476C4.80493 3.27205 4.39981 3.87837 3.88909 4.38909C3.37837 4.89982 2.77205 5.30494 2.10476 5.58134C1.43747 5.85774 0.722268 6 2.4041e-07 6L0 11.5C1.44454 11.5 2.87493 11.2155 4.20952 10.6627C5.54411 10.1099 6.75675 9.29962 7.77815 8.27816C8.79961 7.25675 9.60987 6.04411 10.1627 4.70952C10.7155 3.37493 11 1.94454 11 0.5L5.5 0.500002Z" fill="#007DFC"/>
</g>
<defs>
<clipPath id="clip0_967_24295">
<rect width="22" height="22" fill="white" transform="translate(0 0.5)"/>
</clipPath>
</defs>
</svg>
