<svg width="20" height="20" viewBox="0 0 20 20" fill="none" xmlns="http://www.w3.org/2000/svg">
<path d="M3.33268 16.6693C2.87435 16.6693 2.47852 16.5095 2.14518 16.1901C1.82574 15.8568 1.66602 15.4609 1.66602 15.0026V5.0026C1.66602 4.54427 1.82574 4.15538 2.14518 3.83594C2.47852 3.5026 2.87435 3.33594 3.33268 3.33594H16.666C17.1243 3.33594 17.5132 3.5026 17.8327 3.83594C18.166 4.15538 18.3327 4.54427 18.3327 5.0026V15.0026C18.3327 15.4609 18.166 15.8568 17.8327 16.1901C17.5132 16.5095 17.1243 16.6693 16.666 16.6693H3.33268ZM9.99935 10.8359L16.666 6.66927V5.0026L9.99935 9.16927L3.33268 5.0026V6.66927L9.99935 10.8359Z" fill="white"/>
</svg>
