<svg width="71" height="56" viewBox="0 0 71 56" fill="none" xmlns="http://www.w3.org/2000/svg">
<circle cx="28" cy="28" r="22.5" fill="#815222" stroke="#815222" stroke-width="3"/>
<circle cx="43" cy="28" r="22.5" fill="#EFBF04" stroke="#815222" stroke-width="3"/>
<mask id="path-3-inside-1_744_4720" fill="white">
<path d="M43 52C46.1517 52 49.2726 51.3792 52.1844 50.1731C55.0962 48.967 57.742 47.1992 59.9706 44.9706C62.1992 42.742 63.967 40.0962 65.1731 37.1844C66.3792 34.2726 67 31.1517 67 28C67 24.8483 66.3792 21.7274 65.1731 18.8156C63.967 15.9038 62.1992 13.258 59.9706 11.0294C57.742 8.80083 55.0962 7.033 52.1844 5.82689C49.2726 4.62078 46.1517 4 43 4L43 28L43 52Z"/>
</mask>
<path d="M43 52C46.1517 52 49.2726 51.3792 52.1844 50.1731C55.0962 48.967 57.742 47.1992 59.9706 44.9706C62.1992 42.742 63.967 40.0962 65.1731 37.1844C66.3792 34.2726 67 31.1517 67 28C67 24.8483 66.3792 21.7274 65.1731 18.8156C63.967 15.9038 62.1992 13.258 59.9706 11.0294C57.742 8.80083 55.0962 7.033 52.1844 5.82689C49.2726 4.62078 46.1517 4 43 4L43 28L43 52Z" fill="#815222" stroke="#815222" stroke-width="6" mask="url(#path-3-inside-1_744_4720)"/>
<line x1="49" y1="29.5" x2="22" y2="29.5" stroke="#815222" stroke-width="3"/>
<line x1="49" y1="19.5" x2="22" y2="19.5" stroke="#815222" stroke-width="3"/>
<line x1="49" y1="39.5" x2="22" y2="39.5" stroke="#815222" stroke-width="3"/>
</svg>
