<svg width="28" height="28" viewBox="0 0 28 28" fill="none" xmlns="http://www.w3.org/2000/svg">
<path d="M25.6676 19.7427V23.2427C25.669 23.5676 25.6024 23.8892 25.4722 24.187C25.3421 24.4847 25.1512 24.7519 24.9117 24.9716C24.6723 25.1912 24.3896 25.3584 24.0819 25.4625C23.7741 25.5666 23.4479 25.6053 23.1243 25.576C19.5343 25.186 16.0858 23.9592 13.056 21.9944C10.2371 20.2032 7.84721 17.8133 6.05598 14.9944C4.08429 11.9508 2.85726 8.48554 2.47431 4.87938C2.44516 4.55676 2.4835 4.2316 2.5869 3.92461C2.69029 3.61762 2.85648 3.33552 3.07487 3.09628C3.29327 2.85703 3.55909 2.66588 3.8554 2.53499C4.15172 2.40411 4.47204 2.33636 4.79598 2.33605H8.29598C8.86217 2.33048 9.41107 2.53098 9.84037 2.90017C10.2697 3.26937 10.5501 3.78207 10.6293 4.34272C10.777 5.46279 11.051 6.56257 11.446 7.62105C11.6029 8.03863 11.6369 8.49245 11.5439 8.92874C11.4508 9.36504 11.2347 9.76551 10.921 10.0827L9.43931 11.5644C11.1001 14.4852 13.5185 16.9036 16.4393 18.5644L17.921 17.0827C18.2382 16.769 18.6387 16.5529 19.075 16.4598C19.5112 16.3668 19.9651 16.4008 20.3826 16.5577C21.4411 16.9527 22.5409 17.2267 23.661 17.3744C24.2277 17.4543 24.7453 17.7398 25.1153 18.1765C25.4853 18.6131 25.6818 19.1706 25.6676 19.7427Z" fill="white" stroke="white" stroke-width="1.5" stroke-linecap="round" stroke-linejoin="round"/>
</svg>
