<svg width="132" height="17" viewBox="0 0 132 17" fill="none" xmlns="http://www.w3.org/2000/svg">
<path d="M0.742188 16.3416V0.5H3.68473V16.3416H0.742188Z" fill="#0B0C0E"/>
<path d="M14.5571 4.12093C15.5229 4.12093 16.383 4.30952 17.1375 4.6867C17.9071 5.06389 18.5107 5.64474 18.9483 6.42928C19.3859 7.19873 19.6047 8.19448 19.6047 9.41655V16.3416H16.7753V9.77864C16.7753 8.70745 16.5188 7.90783 16.0057 7.37977C15.5078 6.85172 14.8061 6.58769 13.9007 6.58769C13.2367 6.58769 12.6482 6.72348 12.1352 6.99505C11.6221 7.26662 11.2222 7.67397 10.9355 8.21711C10.6639 8.74517 10.5281 9.41655 10.5281 10.2313V16.3416H7.69871V4.25672H10.3923V7.51556L9.91694 6.5198C10.3395 5.75035 10.9506 5.16195 11.7504 4.7546C12.5652 4.33215 13.5008 4.12093 14.5571 4.12093Z" fill="#0B0C0E"/>
<path d="M26.187 16.3416L21.0036 4.25672H23.9462L28.4053 14.9158H26.9566L31.5741 4.25672H34.2903L29.1069 16.3416H26.187Z" fill="#0B0C0E"/>
<path d="M41.4085 16.5C40.0655 16.5 38.8885 16.236 37.8774 15.7079C36.8815 15.1648 36.1044 14.4255 35.546 13.4901C35.0028 12.5547 34.7312 11.491 34.7312 10.2992C34.7312 9.09217 34.9953 8.02852 35.5234 7.1082C36.0666 6.1728 36.8061 5.44107 37.7416 4.91301C38.6923 4.38496 39.7712 4.12093 40.9784 4.12093C42.1554 4.12093 43.2042 4.37742 44.1247 4.89038C45.0452 5.40335 45.7695 6.12753 46.2976 7.06294C46.8258 7.99835 47.0899 9.09972 47.0899 10.367C47.0899 10.4877 47.0823 10.6235 47.0672 10.7744C47.0672 10.9253 47.0597 11.0686 47.0446 11.2044H36.972V9.32603H45.5507L44.4416 9.91443C44.4567 9.22042 44.3133 8.60938 44.0115 8.08133C43.7097 7.55328 43.2947 7.13838 42.7666 6.83663C42.2535 6.53489 41.6575 6.38402 40.9784 6.38402C40.2843 6.38402 39.6731 6.53489 39.145 6.83663C38.6319 7.13838 38.2245 7.56082 37.9227 8.10396C37.636 8.63201 37.4926 9.25813 37.4926 9.98232V10.4349C37.4926 11.1591 37.6586 11.8003 37.9906 12.3586C38.3226 12.9168 38.7904 13.3468 39.394 13.6485C39.9976 13.9503 40.6917 14.1011 41.4764 14.1011C42.1554 14.1011 42.7666 13.9955 43.3098 13.7843C43.8531 13.5731 44.3359 13.2412 44.7585 12.7885L46.275 14.5311C45.7318 15.1648 45.0452 15.6551 44.2152 16.0021C43.4004 16.334 42.4648 16.5 41.4085 16.5Z" fill="#0B0C0E"/>
<path d="M53.5424 16.5C52.5314 16.5 51.5581 16.3718 50.6225 16.1153C49.702 15.8437 48.9701 15.5193 48.4269 15.1421L49.5134 12.9922C50.0566 13.3392 50.7055 13.6259 51.46 13.8522C52.2145 14.0785 52.969 14.1917 53.7235 14.1917C54.6138 14.1917 55.2551 14.071 55.6474 13.8296C56.0549 13.5882 56.2586 13.2638 56.2586 12.8564C56.2586 12.5245 56.1228 12.2756 55.8512 12.1096C55.5795 11.9286 55.2249 11.7928 54.7873 11.7023C54.3497 11.6117 53.8593 11.5288 53.3161 11.4533C52.7879 11.3779 52.2522 11.2798 51.709 11.1591C51.1808 11.0233 50.6979 10.8347 50.2603 10.5934C49.8227 10.3369 49.4681 9.99741 49.1965 9.57496C48.9249 9.15252 48.7891 8.59429 48.7891 7.90028C48.7891 7.13083 49.0079 6.467 49.4455 5.90877C49.8831 5.33546 50.4942 4.89793 51.2789 4.59618C52.0787 4.27935 53.0218 4.12093 54.1083 4.12093C54.9231 4.12093 55.7455 4.21146 56.5755 4.3925C57.4054 4.57355 58.092 4.83003 58.6353 5.16195L57.5488 7.31188C56.9754 6.96487 56.3944 6.73102 55.8059 6.61033C55.2325 6.47454 54.6591 6.40665 54.0856 6.40665C53.2255 6.40665 52.5842 6.53489 52.1617 6.79137C51.7542 7.04785 51.5505 7.37223 51.5505 7.7645C51.5505 8.12659 51.6863 8.39816 51.958 8.57921C52.2296 8.76025 52.5842 8.90358 53.0218 9.00919C53.4594 9.1148 53.9423 9.20533 54.4704 9.28076C55.0137 9.34111 55.5494 9.43918 56.0775 9.57496C56.6057 9.71075 57.0885 9.89934 57.5261 10.1407C57.9789 10.367 58.341 10.6914 58.6126 11.1139C58.8842 11.5363 59.0201 12.087 59.0201 12.7659C59.0201 13.5203 58.7937 14.1766 58.341 14.7348C57.9034 15.293 57.2772 15.7306 56.4623 16.0474C55.6474 16.3491 54.6741 16.5 53.5424 16.5Z" fill="#0B0C0E"/>
<path d="M66.0063 16.5C64.6784 16.5 63.6523 16.1605 62.9279 15.4816C62.2036 14.7876 61.8415 13.7692 61.8415 12.4264V1.58628H64.6708V12.3586C64.6708 12.9319 64.8142 13.3769 65.1009 13.6938C65.4027 14.0106 65.8177 14.169 66.3458 14.169C66.9796 14.169 67.5077 14.0031 67.9303 13.6711L68.7225 15.6853C68.3905 15.9569 67.9831 16.1605 67.5002 16.2963C67.0173 16.4321 66.5193 16.5 66.0063 16.5ZM59.8496 6.61033V4.34724H67.9076V6.61033H59.8496Z" fill="#0B0C0E"/>
<path d="M86.3059 4.12093C87.2717 4.12093 88.1243 4.30952 88.8637 4.6867C89.6182 5.06389 90.2067 5.64474 90.6292 6.42928C91.0517 7.19873 91.263 8.19448 91.263 9.41655V16.3416H88.4336V9.77864C88.4336 8.70745 88.1997 7.90783 87.7319 7.37977C87.2641 6.85172 86.5926 6.58769 85.7174 6.58769C85.0987 6.58769 84.548 6.72348 84.0651 6.99505C83.5973 7.26662 83.2276 7.66643 82.956 8.19448C82.6994 8.72254 82.5712 9.39392 82.5712 10.2086V16.3416H79.7418V9.77864C79.7418 8.70745 79.5079 7.90783 79.0401 7.37977C78.5723 6.85172 77.9008 6.58769 77.0256 6.58769C76.4069 6.58769 75.8561 6.72348 75.3733 6.99505C74.9055 7.26662 74.5358 7.66643 74.2641 8.19448C74.0076 8.72254 73.8794 9.39392 73.8794 10.2086V16.3416H71.05V4.25672H73.7435V7.4703L73.2682 6.5198C73.6756 5.73527 74.2641 5.13932 75.0337 4.73197C75.8184 4.32461 76.7087 4.12093 77.7047 4.12093C78.8364 4.12093 79.8172 4.40005 80.6472 4.95827C81.4922 5.5165 82.0506 6.36139 82.3222 7.49293L81.2131 7.1082C81.6054 6.20297 82.2543 5.47878 83.1597 4.93564C84.0651 4.3925 85.1138 4.12093 86.3059 4.12093Z" fill="#0B0C0E"/>
<path d="M100.582 16.5C99.239 16.5 98.062 16.236 97.051 15.7079C96.055 15.1648 95.2779 14.4255 94.7196 13.4901C94.1763 12.5547 93.9047 11.491 93.9047 10.2992C93.9047 9.09217 94.1688 8.02852 94.6969 7.1082C95.2402 6.1728 95.9796 5.44107 96.9152 4.91301C97.8658 4.38496 98.9448 4.12093 100.152 4.12093C101.329 4.12093 102.378 4.37742 103.298 4.89038C104.219 5.40335 104.943 6.12753 105.471 7.06294C105.999 7.99835 106.263 9.09972 106.263 10.367C106.263 10.4877 106.256 10.6235 106.241 10.7744C106.241 10.9253 106.233 11.0686 106.218 11.2044H96.1456V9.32603H104.724L103.615 9.91443C103.63 9.22042 103.487 8.60938 103.185 8.08133C102.883 7.55328 102.468 7.13838 101.94 6.83663C101.427 6.53489 100.831 6.38402 100.152 6.38402C99.4578 6.38402 98.8467 6.53489 98.3185 6.83663C97.8055 7.13838 97.398 7.56082 97.0962 8.10396C96.8095 8.63201 96.6662 9.25813 96.6662 9.98232V10.4349C96.6662 11.1591 96.8322 11.8003 97.1642 12.3586C97.4961 12.9168 97.9639 13.3468 98.5675 13.6485C99.1711 13.9503 99.8653 14.1011 100.65 14.1011C101.329 14.1011 101.94 13.9955 102.483 13.7843C103.027 13.5731 103.509 13.2412 103.932 12.7885L105.449 14.5311C104.905 15.1648 104.219 15.6551 103.389 16.0021C102.574 16.334 101.638 16.5 100.582 16.5Z" fill="#0B0C0E"/>
<path d="M115.84 4.12093C116.805 4.12093 117.665 4.30952 118.42 4.6867C119.19 5.06389 119.793 5.64474 120.231 6.42928C120.668 7.19873 120.887 8.19448 120.887 9.41655V16.3416H118.058V9.77864C118.058 8.70745 117.801 7.90783 117.288 7.37977C116.79 6.85172 116.089 6.58769 115.183 6.58769C114.519 6.58769 113.931 6.72348 113.418 6.99505C112.905 7.26662 112.505 7.67397 112.218 8.21711C111.946 8.74517 111.811 9.41655 111.811 10.2313V16.3416H108.981V4.25672H111.675V7.51556L111.199 6.5198C111.622 5.75035 112.233 5.16195 113.033 4.7546C113.848 4.33215 114.783 4.12093 115.84 4.12093Z" fill="#0B0C0E"/>
<path d="M129.026 16.5C127.698 16.5 126.672 16.1605 125.948 15.4816C125.223 14.7876 124.861 13.7692 124.861 12.4264V1.58628H127.691V12.3586C127.691 12.9319 127.834 13.3769 128.121 13.6938C128.422 14.0106 128.837 14.169 129.366 14.169C129.999 14.169 130.527 14.0031 130.95 13.6711L131.742 15.6853C131.41 15.9569 131.003 16.1605 130.52 16.2963C130.037 16.4321 129.539 16.5 129.026 16.5ZM122.869 6.61033V4.34724H130.927V6.61033H122.869Z" fill="#0B0C0E"/>
</svg>
